<svg xmlns="http://www.w3.org/2000/svg" xmlns:xlink="http://www.w3.org/1999/xlink" width="176" height="44" viewBox="0 0 176 44">
    <defs>
        <path id="ly24ojh82a" d="M0.022 0.024L14.443 0.024 14.443 15.889 0.022 15.889z"/>
        <path id="wzxizaqapc" d="M0.29 0.016L14.371 0.016 14.371 15.851 0.29 15.851z"/>
        <path id="yp3jn3y18e" d="M0 0.005L12.039 0.005 12.039 29.188 0 29.188z"/>
    </defs>
    <g fill="none" fill-rule="evenodd">
        <g>
            <g>
                <g>
                    <g>
                        <g transform="translate(-624 -100) translate(504 100) translate(120) translate(3.667 7.333) translate(118.556 13.444)">
                            <mask id="8bip5qhxhb" fill="#fff">
                                <use xlink:href="#ly24ojh82a"/>
                            </mask>
                            <path fill="#231F20" d="M3.533 10.382c-.221-2.694 1.132-7.668 4.614-7.988.07-.006.136-.007.204-.01 2.035.07 2.503 1.976 2.597 3.124.217 2.635-1.17 7.714-4.589 8.028-.064.006-.125.006-.188.01-2.146-.072-2.56-2.226-2.638-3.164M8.524.024c-1.303 0-2.315.184-3.252.562-3.597 1.47-5.385 5.992-5.242 9.5.145 3.579 2.378 5.744 5.977 5.802 2.224.036 4.244-.82 5.704-2.37 1.795-1.907 2.839-4.847 2.724-7.672C14.286 2.2 12.054.024 8.525.024" mask="url(#8bip5qhxhb)"/>
                        </g>
                        <g transform="translate(-624 -100) translate(504 100) translate(120) translate(3.667 7.333) translate(152.778 13.444)">
                            <mask id="vwl25qovdd" fill="#fff">
                                <use xlink:href="#wzxizaqapc"/>
                            </mask>
                            <path fill="#231F20" d="M4.073 7.61c.533-2.29 2.018-3.755 2.593-4.149.877-.6 2.848-1.515 4.057-.61.298.224.48.705.444 1.156-.07.882-.824 1.781-2.068 2.469-1.732.956-3.527 1.137-4.587 1.15-.177-.003-.327-.01-.44-.016M12.732.767c-.683-.412-1.589-.674-2.552-.738-.198-.013-.399-.014-.6-.011-1.097-.021-2.245.194-3.393.648C2.822 1.996.513 5.336.303 9.175c-.105 1.935.43 3.617 1.552 4.865 1.02 1.136 2.496 1.67 4.04 1.788 0 0 .296.027.765.022 1.001.013 3.277-.11 4.894-1.37.836-.651 1.084-2.128.418-2.956l-.007.007-.004-.007s-2.109 1.683-4.495 1.787c-.285-.004-.576-.024-.878-.077-2.544-.447-2.753-2.839-2.753-3.49.162.002.324.004.485.002 3.418.006 6.472-.892 8.18-2.4 1.096-.968 1.753-1.854 1.863-3.523.14-2.092-1.625-3.053-1.632-3.056" mask="url(#vwl25qovdd)"/>
                        </g>
                        <path fill="#231F20" d="M37.876 15.356c.006.003 1.612-8.978 1.612-8.978s.642-.167 1.822-.178c.188.002.387.008.598.019 2.342.122 4.87 1.175 4.11 4.715-.316 1.48-1.417 2.933-2.708 3.666-1.882 1.068-4.734.845-5.434.756m4.073-11.687c-.227-.003-.447-.003-.662-.001-3.217.001-5.192.42-5.192.42l-4.317 24.023h2.153c1.034 0 1.742-.477 1.958-1.68l1.495-8.337c.872.049 1.672.076 2.602.074 5.821-.014 9.313-3.582 9.987-7.12.96-5.034-3.228-7.33-8.024-7.38M95.754 13.464c-2.943-.236-4.621 1.683-5.705 3.447-.11-1.109-.463-1.973-1.055-2.57-.578-.584-1.384-.873-2.313-.893-2.55-.052-4.193 1.62-5.445 3.901l.039-.265c.219-1.616.133-2.224-.346-2.858 0 0-.43-.636-1.667-.584-.445-.017-1.01.058-1.725.311.407.468.405 1.356.027 4.073-.025.178-1.78 10.412-1.78 10.412s-.113.695.598.695h2.745s.36-2.153.426-2.504c.31-1.428.546-2.91 1.417-4.994 1.789-4.277 4.587-6.039 5.435-5.057.289.333.322 1.159.154 2.305l-1.646 9.555s-.113.695.597.695h2.742l.353-2.085c.585-3.577 1.415-5.603 1.415-5.603 1.58-3.861 3.71-5.484 4.618-5.17.22.076.612.29.774 1.017.093.45.098 1.181-.036 2-.147 1.124-.846 4.25-1.169 6.597-.219 1.615-.133 2.223.346 2.857 0 0 .43.636 1.667.584.445.017 1.01-.058 1.725-.311-.407-.468-.456-1.459-.039-4.09.254-1.602.617-3.32.617-3.32.513-2.54.687-4.71.147-6.044-.66-1.63-2.213-2.044-2.916-2.1M147.096 13.464c-2.9-.234-4.737 1.63-6.019 3.919l.044-.302c.218-1.616.095-2.355-.345-2.858-.85-.969-2.665-.526-3.377-.272.405.467.404 1.355.027 4.073-.052.369-.112.762-.177 1.126h.006l-1.582 9.288s-.112.695.595.695h2.726s.359-2.154.424-2.504c.308-1.429.66-2.955 1.509-5.045 1.761-4.334 4.355-5.658 5.156-5.292.325.15.568.486.673.998.093.45.098 1.181-.036 2-.147 1.124-.842 4.252-1.164 6.598-.218 1.616-.132 2.224.345 2.858 0 0 .428.636 1.66.584.442.017 1.005-.058 1.717-.312-.405-.467-.454-1.458-.039-4.09.254-1.602.615-3.32.615-3.32.51-2.54.695-4.715.146-6.046-.672-1.627-2.278-2.047-2.904-2.098M63.716 13.882c-1.028.064-2.306.175-2.306.175l-.312 1.834c-.098.566-.22 1.184-.345 1.794-.255 1.016-.595 2.142-1.167 3.505-1.796 4.275-4.2 5.519-5.104 5.32-.297-.065-.615-.324-.774-1.03-.092-.448-.097-1.18.037-1.998.148-1.124.85-4.25 1.174-6.594.22-1.615.133-2.223-.348-2.856 0 0-.43-.636-1.672-.585-.447-.016-1.015.059-1.732.312.409.468.458 1.458.039 4.088-.256 1.601-.377 1.95-.62 3.318-.276 1.556-.563 3.224-.45 4.756.142 1.9 1.438 3.199 3.231 3.383 2.83.29 4.77-1.635 6.058-3.853l-.035.238c-.22 1.615-.133 2.223.348 2.856 0 0 .431.636 1.673.584.446.017 1.014-.058 1.732-.311-.41-.468-.408-1.355-.027-4.071.05-.368.112-.761.178-1.125h-.007l1.008-5.92.454-2.611c.118-.658-.101-1.268-1.033-1.21M115.049 13.882c-1.028.064-2.306.175-2.306.175l-.311 1.834c-.098.566-.221 1.184-.345 1.794-.256 1.016-.596 2.142-1.167 3.505-1.797 4.275-4.2 5.519-5.105 5.32-.297-.065-.614-.324-.773-1.03-.093-.448-.098-1.18.036-1.998.148-1.124.85-4.25 1.174-6.594.22-1.615.134-2.223-.347-2.856 0 0-.431-.636-1.673-.585-.446-.016-1.014.059-1.732.312.409.468.458 1.458.039 4.088-.256 1.601-.376 1.95-.62 3.318-.276 1.556-.563 3.224-.449 4.756.141 1.9 1.437 3.199 3.23 3.383 2.83.29 4.77-1.635 6.058-3.853l-.034.238c-.22 1.615-.134 2.223.347 2.856 0 0 .431.636 1.673.584.446.017 1.014-.058 1.732-.311-.41-.468-.408-1.355-.027-4.071.051-.368.112-.761.178-1.125h-.006l1.007-5.92.454-2.611c.118-.658-.1-1.268-1.033-1.21M74.06 4.89c-.084-.003-.181.005-.296.027l-2.725.559-3.71 20.813c-.187 1.189-.115 1.664.117 2.131.227.404.584.635.974.76.42.13.854.162 1.23.152.718.019 1.297-.137 1.297-.137s-.368-1.141-.061-2.942l3.603-20.236c.103-.579.164-1.129-.43-1.128" transform="translate(-624 -100) translate(504 100) translate(120) translate(3.667 7.333)"/>
                        <g transform="translate(-624 -100) translate(504 100) translate(120) translate(3.667 7.333)">
                            <mask id="h0nif1jrif" fill="#fff">
                                <use xlink:href="#yp3jn3y18e"/>
                            </mask>
                            <path fill="#80C342" d="M10.846 7.48l.305-3.335c.132-1.517.223-2.583.238-2.807.009-.127 0-.253-.028-.368-.073-.308-.295-.5-.295-.5-.265-.256-.898-.629-2.242-.386-.047.008-.558.105-1 .36-.155.091-.513.326-.7.638-.11.2-.312.652-.387 1.439l-.288 4.763-.243 3.804s-.165 2.397-.224 3.09c-.118 1.293-.26 2.962-.402 4.733l-3.98.178c-.252.014-1.584.125-1.6.914 0 .045.003.092.01.144.07.559.347.942.702 1.205.083.06.204.134.232.151.875.51 2.125.488 2.125.488h2.287l-.331 4.628c-.02.323-.038.631-.053.92-.026.475-.04 1.004.136 1.308.138.237.358.272.562.295.827.097 1.759.135 2.472-.865.644-.902.862-1.922 1.054-3.266.043-.305.126-1.02.215-1.816l.978-10.704c.145-1.193 1.046-1.363 1.392-1.384 0 0 .114-.005.258-.003l-1.193-3.625z" mask="url(#h0nif1jrif)"/>
                        </g>
                        <path fill="#009333" d="M25.367 8.223l-3.626-.171.371-5.47c.019-.324.035-.634.05-.925.025-.477.039-1.009-.13-1.314-.13-.238-.34-.273-.534-.297-.786-.096-1.671-.135-2.35.87-.612.906-.82 1.932-1.001 3.283-.042.306-.12 1.025-.205 1.825l-.159 1.84c-6.133-.29-13.818-.65-14.891-.698 0 0-.616-.016-.997.022C.79 7.346.336 7.954.151 8.423c-.003.01-.197.612-.14 1.318 0 0 .035.521.213.8.169.239.542.569 1.33.6h8.904s2.632.04 2.679.042c0 0 4.514-.02 4.544 3.607 0 0 .112 2.818-2.958 3.628 0 0-.495.158-1.327.203l3.157 3.478-.265 3.074c-.125 1.525-.212 2.595-.226 2.821-.009.128 0 .254.026.37.07.31.281.501.281.501.251.26.853.633 2.131.389.045-.008.531-.106.951-.362.147-.092.488-.327.665-.64.106-.201.297-.657.368-1.447l.27-4.706.235-3.906c.08-1.282.156-2.409.213-3.105.095-1.1.206-2.472.32-3.948h2.449s1.189.022 2.02-.49c.027-.017.143-.091.221-.152.338-.265.6-.65.667-1.211.007-.052.01-.1.01-.145-.016-.793-1.282-.905-1.522-.919" transform="translate(-624 -100) translate(504 100) translate(120) translate(3.667 7.333)"/>
                        <path fill="#80C342" d="M26.738 19.495c-.184-.433-.636-.993-1.737-1.138-.379-.035-.993-.02-.993-.02-.36.014-1.463.061-3.001.128l-7.56.329c-.466.026-.898.013-1.011.02-.36.017-1.156.136-1.223.863L11 22H25.342c.784-.028 1.156-.332 1.324-.553.177-.257.213-.737.213-.737.055-.65-.137-1.206-.14-1.215" transform="translate(-624 -100) translate(504 100) translate(120) translate(3.667 7.333)"/>
                    </g>
                </g>
            </g>
        </g>
    </g>
</svg>
