<svg xmlns="http://www.w3.org/2000/svg" width="20" height="20" viewBox="0 0 20 20">
    <g fill="none" fill-rule="evenodd">
        <path d="M0 0H20V20H0z"/>
        <path fill="#333333" d="M12.5 2.625c.245 0 .45.177.492.41l.008.09v.749l2 .001c.918 0 1.671.707 1.744 1.606l.006.144v9.25c0 .966-.784 1.75-1.75 1.75H5c-.966 0-1.75-.784-1.75-1.75v-9.25c0-.966.784-1.75 1.75-1.75l2.083-.001v-.749c0-.276.224-.5.5-.5.246 0 .45.177.492.41l.008.09v.749H12v-.749c0-.276.224-.5.5-.5zm3.25 5.708H4.25v6.542c0 .38.282.693.648.743l.102.007h10c.414 0 .75-.336.75-.75V8.333zM7.083 4.874L5 4.875c-.414 0-.75.336-.75.75v1.708h11.5V5.625c0-.38-.282-.693-.648-.743L15 4.875l-2-.001v.886c0 .276-.224.5-.5.5-.245 0-.45-.177-.492-.41L12 5.76v-.886H8.083v.886c0 .276-.224.5-.5.5-.245 0-.45-.177-.492-.41l-.008-.09v-.886z"/>
    </g>
</svg>
